<?xml version="1.0" encoding="utf-8"?>
<svg width="800px" height="800px" viewBox="0 0 24 24" fill="none" xmlns="http://www.w3.org/2000/svg">
  <!-- Speech bubble outline copied from NewChat.svg -->
  <path fill-rule="evenodd" clip-rule="evenodd" d="M12 3C7.85113 3 4 5.73396 4 10C4 11.5704 4.38842 12.7289 5.08252 13.6554C5.79003 14.5998 6.87746 15.3863 8.41627 16.0908L9.2326 16.4645L8.94868 17.3162C8.54129 18.5384 7.84997 19.6611 7.15156 20.5844C9.56467 19.8263 12.7167 18.6537 14.9453 17.1679C17.1551 15.6948 18.3969 14.5353 19.0991 13.455C19.7758 12.4139 20 11.371 20 10C20 5.73396 16.1489 3 12 3ZM2 10C2 4.26604 7.14887 1 12 1C16.8511 1 22 4.26604 22 10C22 11.629 21.7242 13.0861 20.7759 14.545C19.8531 15.9647 18.3449 17.3052 16.0547 18.8321C13.0781 20.8164 8.76589 22.2232 6.29772 22.9281C5.48665 23.1597 4.84055 22.6838 4.56243 22.1881C4.28848 21.6998 4.22087 20.9454 4.74413 20.3614C5.44439 19.5798 6.21203 18.5732 6.72616 17.4871C5.40034 16.7841 4.29326 15.9376 3.48189 14.8545C2.48785 13.5277 2 11.9296 2 10Z" fill="#ffffff"/>
  <!-- X mark -->
  <path d="M9.5 8.5C9.22386 8.5 9 8.72386 9 9C9 9.13261 9.05268 9.25979 9.14645 9.35355L10.7929 11L9.14645 12.6464C9.05268 12.7402 9 12.8674 9 13C9 13.2761 9.22386 13.5 9.5 13.5C9.63261 13.5 9.75979 13.4473 9.85355 13.3536L11.5 11.7071L13.1464 13.3536C13.2402 13.4473 13.3674 13.5 13.5 13.5C13.7761 13.5 14 13.2761 14 13C14 12.8674 13.9473 12.7402 13.8536 12.6464L12.2071 11L13.8536 9.35355C13.9473 9.25979 14 9.13261 14 9C14 8.72386 13.7761 8.5 13.5 8.5C13.3674 8.5 13.2402 8.55268 13.1464 8.64645L11.5 10.2929L9.85355 8.64645C9.75979 8.55268 9.63261 8.5 9.5 8.5Z" fill="#ffffff"/>
</svg>