<svg version="1.1" id="Layer_1" xmlns="http://www.w3.org/2000/svg" xmlns:xlink="http://www.w3.org/1999/xlink" x="0px" y="0px"
	 width="100%" viewBox="0 0 159 185" enable-background="new 0 0 159 185" xml:space="preserve">
<path fill="#000000" opacity="1.000000" stroke="none" 
	d="
M1.000000,67.000000 
	C1.000000,44.666672 1.000000,22.833344 1.000000,1.000012 
	C53.999981,1.000008 106.999962,1.000008 159.999954,1.000004 
	C159.999969,62.666637 159.999969,124.333275 159.999985,185.999939 
	C107.000046,185.999954 54.000092,185.999954 1.000068,185.999969 
	C1.000000,146.500000 1.000000,107.000000 1.000000,67.000000 
M17.999798,56.500755 
	C17.999828,89.498985 18.237843,122.499985 17.855288,155.493774 
	C17.740089,165.429092 25.712803,173.257050 35.292557,173.135986 
	C64.786293,172.763290 94.287720,173.000717 123.786163,172.999908 
	C135.520111,172.999573 141.996216,166.530045 141.998047,154.776505 
	C142.003784,117.778458 142.000183,80.780411 142.000198,43.782368 
	C142.000198,41.992050 142.000198,40.201733 142.000198,38.162472 
	C144.520172,38.040325 146.595779,37.939720 148.677490,37.838821 
	C148.677490,34.386570 148.677490,31.327929 148.677490,27.776855 
	C135.626999,27.776855 122.892601,27.776855 109.836311,27.776855 
	C109.836311,21.665459 109.836311,16.055191 109.836311,10.294186 
	C89.774765,10.294186 70.053978,10.294186 49.825066,10.294186 
	C49.825066,16.312607 49.825066,22.045588 49.825066,28.263020 
	C36.253407,28.263020 23.185995,28.263020 10.249181,28.263020 
	C10.249181,31.718462 10.249181,34.668713 10.249181,37.799526 
	C12.883406,37.948067 15.290514,38.083801 17.999798,38.236576 
	C17.999798,44.222111 17.999798,49.861786 17.999798,56.500755 
z"/>
<path fill="#A5A5A5" opacity="1.000000" stroke="none" 
	d="
M17.999798,56.001110 
	C17.999798,49.861786 17.999798,44.222111 17.999798,38.236576 
	C15.290514,38.083801 12.883406,37.948067 10.249181,37.799526 
	C10.249181,34.668713 10.249181,31.718462 10.249181,28.263020 
	C23.185995,28.263020 36.253407,28.263020 49.825066,28.263020 
	C49.825066,22.045588 49.825066,16.312607 49.825066,10.294186 
	C70.053978,10.294186 89.774765,10.294186 109.836311,10.294186 
	C109.836311,16.055191 109.836311,21.665459 109.836311,27.776855 
	C122.892601,27.776855 135.626999,27.776855 148.677490,27.776855 
	C148.677490,31.327929 148.677490,34.386570 148.677490,37.838821 
	C146.595779,37.939720 144.520172,38.040325 142.000198,38.162472 
	C142.000198,40.201733 142.000198,41.992050 142.000198,43.782368 
	C142.000183,80.780411 142.003784,117.778458 141.998047,154.776505 
	C141.996216,166.530045 135.520111,172.999573 123.786163,172.999908 
	C94.287720,173.000717 64.786293,172.763290 35.292557,173.135986 
	C25.712803,173.257050 17.740089,165.429092 17.855288,155.493774 
	C18.237843,122.499985 17.999828,89.498985 17.999798,56.001110 
M63.500000,162.999817 
	C83.985100,162.999832 104.470192,163.002640 124.955292,162.998276 
	C131.641083,162.996857 131.997787,162.637299 131.998337,155.891388 
	C132.001404,118.418579 131.999802,80.945770 131.999802,43.472961 
	C131.999802,41.719086 131.999802,39.965210 131.999802,38.373016 
	C96.588638,38.373016 61.881714,38.373016 27.137470,38.373016 
	C27.078470,39.400784 27.007698,40.059219 27.007591,40.717659 
	C27.001446,78.523552 27.000387,116.329453 27.004578,154.135345 
	C27.004686,155.131577 26.892019,156.172852 27.133089,157.116150 
	C28.100166,160.900238 29.642473,163.389572 34.527428,163.138550 
	C43.829433,162.660538 53.173435,162.999863 63.500000,162.999817 
M72.511078,27.999798 
	C81.597694,27.999798 90.684311,27.999798 99.814117,27.999798 
	C99.814117,24.772419 99.814117,22.157207 99.814117,20.045986 
	C86.481895,20.045986 73.323631,20.045986 60.060364,20.045986 
	C60.060364,22.913063 60.060364,25.192490 60.060364,27.999798 
	C63.956440,27.999798 67.736900,27.999798 72.511078,27.999798 
z"/>
<path fill="#000000" opacity="1.000000" stroke="none" 
	d="
M63.000000,162.999817 
	C53.173435,162.999863 43.829433,162.660538 34.527428,163.138550 
	C29.642473,163.389572 28.100166,160.900238 27.133089,157.116150 
	C26.892019,156.172852 27.004686,155.131577 27.004578,154.135345 
	C27.000387,116.329453 27.001446,78.523552 27.007591,40.717659 
	C27.007698,40.059219 27.078470,39.400784 27.137470,38.373016 
	C61.881714,38.373016 96.588638,38.373016 131.999802,38.373016 
	C131.999802,39.965210 131.999802,41.719086 131.999802,43.472961 
	C131.999802,80.945770 132.001404,118.418579 131.998337,155.891388 
	C131.997787,162.637299 131.641083,162.996857 124.955292,162.998276 
	C104.470192,163.002640 83.985100,162.999832 63.000000,162.999817 
M90.487534,129.008698 
	C93.679214,124.887672 96.991974,120.853806 100.035316,116.625999 
	C105.100677,109.589241 105.028725,109.535904 98.405083,104.145393 
	C98.302139,104.061607 98.089294,104.112877 97.934250,104.100426 
	C93.886581,109.260406 89.838913,114.420380 85.000198,120.588791 
	C85.000198,117.799232 85.000206,116.224960 85.000206,114.650688 
	C85.000206,98.677513 85.063568,82.703979 84.975105,66.731293 
	C84.926361,57.930508 86.982063,57.730606 76.157784,58.101772 
	C75.882538,58.111210 75.616547,58.390732 74.814423,58.846420 
	C74.814423,78.856804 74.814423,99.158806 74.814423,120.515961 
	C69.937599,114.424187 65.790062,109.243393 61.760098,104.209457 
	C60.528954,104.929672 59.509945,105.446365 58.575260,106.086227 
	C54.343380,108.983238 54.288879,110.166061 57.585533,114.138222 
	C60.500374,117.650360 63.163433,121.370148 65.999870,124.948952 
	C70.601898,130.755402 75.254791,136.521545 79.961990,142.399353 
	C83.575829,137.758133 86.778694,133.644714 90.487534,129.008698 
z"/>
<path fill="#000000" opacity="1.000000" stroke="none" 
	d="
M72.014221,27.999798 
	C67.736900,27.999798 63.956440,27.999798 60.060364,27.999798 
	C60.060364,25.192490 60.060364,22.913063 60.060364,20.045986 
	C73.323631,20.045986 86.481895,20.045986 99.814117,20.045986 
	C99.814117,22.157207 99.814117,24.772419 99.814117,27.999798 
	C90.684311,27.999798 81.597694,27.999798 72.014221,27.999798 
z"/>
<path fill="#A5A5A5" opacity="1.000000" stroke="none" 
	d="
M90.234550,129.269989 
	C86.778694,133.644714 83.575829,137.758133 79.961990,142.399353 
	C75.254791,136.521545 70.601898,130.755402 65.999870,124.948952 
	C63.163433,121.370148 60.500374,117.650360 57.585533,114.138222 
	C54.288879,110.166061 54.343380,108.983238 58.575260,106.086227 
	C59.509945,105.446365 60.528954,104.929672 61.760098,104.209457 
	C65.790062,109.243393 69.937599,114.424187 74.814423,120.515961 
	C74.814423,99.158806 74.814423,78.856804 74.814423,58.846420 
	C75.616547,58.390732 75.882538,58.111210 76.157784,58.101772 
	C86.982063,57.730606 84.926361,57.930508 84.975105,66.731293 
	C85.063568,82.703979 85.000206,98.677513 85.000206,114.650688 
	C85.000206,116.224960 85.000198,117.799232 85.000198,120.588791 
	C89.838913,114.420380 93.886581,109.260406 97.930992,104.100777 
	C98.089294,104.112877 98.302139,104.061607 98.405083,104.145393 
	C105.028725,109.535904 105.100677,109.589241 100.035316,116.625999 
	C96.991974,120.853806 93.679214,124.887672 90.234550,129.269989 
z"/>
</svg>